<svg width="180" height="180" viewBox="0 0 180 180" fill="none" xmlns="http://www.w3.org/2000/svg">
<path d="M26.9396 117.325C23.0964 113.358 23.0964 106.927 26.9396 102.961L44.2219 85.1245L62.5537 108.585C63.4979 109.793 65.1607 110.098 66.4504 109.3V109.3C66.7247 109.13 66.9711 108.916 67.1803 108.666L67.236 108.599C68.3622 107.254 68.3889 105.268 67.2994 103.892L48.7504 80.4508L60.9715 67.8378C64.8146 63.8714 71.0455 63.8714 74.8887 67.8378L108.921 102.961C112.764 106.927 112.764 113.358 108.921 117.325L74.8887 152.448C71.0455 156.414 64.8146 156.414 60.9715 152.448L26.9396 117.325Z" fill="#9B5D4E"/>
<path d="M64.7676 106.273L45.5405 81.494L40.7989 75.4509V75.4509C38.1802 72.1133 33.4021 71.6268 30.1469 74.3473V74.3473C26.6005 77.3112 26.3169 82.7988 29.5615 86.0674L33.9176 90.4557" stroke="#9B5D4E" stroke-width="5" stroke-linecap="round"/>
<path d="M80.3205 70.3826C79.9751 69.998 80.3542 69.3901 80.837 69.5546L84.0114 70.6362C84.3896 70.765 84.7525 70.4003 84.6379 70.0066L83.442 65.901C83.3274 65.5073 83.6903 65.1426 84.0685 65.2714L88.1598 66.6655C88.538 66.7943 88.901 66.4296 88.7863 66.0359L87.5905 61.9303C87.4758 61.5366 87.8388 61.1719 88.217 61.3007L92.3083 62.6948C92.6865 62.8236 93.0494 62.4589 92.9348 62.0652L91.7389 57.9596C91.6243 57.5659 91.9872 57.2012 92.3654 57.33L96.4567 58.7241C96.8349 58.8529 97.1979 58.4882 97.0832 58.0945L95.8874 53.9888C95.7727 53.5952 96.1357 53.2304 96.5139 53.3593L100.605 54.7534C100.983 54.8822 101.346 54.5175 101.232 54.1238L100.036 50.0181C99.9212 49.6245 100.284 49.2597 100.662 49.3886L104.754 50.7826C105.132 50.9115 105.495 50.5468 105.38 50.1531L104.184 46.0474C104.07 45.6538 104.433 45.289 104.811 45.4179L108.902 46.8119C109.28 46.9408 109.643 46.5761 109.529 46.1824L108.333 42.0767C108.218 41.683 108.581 41.3183 108.959 41.4472L113.051 42.8412C113.429 42.9701 113.792 42.6054 113.677 42.2117L112.481 38.106C112.367 37.7123 112.73 37.3476 113.108 37.4765L117.199 38.8705C117.577 38.9994 117.94 38.6346 117.825 38.241L116.63 34.1353C116.515 33.7416 116.878 33.3769 117.256 33.5058L121.347 34.8998C121.726 35.0287 122.089 34.6639 121.974 34.2703L120.778 30.1646C120.663 29.7709 121.026 29.4062 121.405 29.5351L125.496 30.9291C125.874 31.058 126.237 30.6932 126.122 30.2996L124.927 26.1939C124.812 25.8002 125.175 25.4355 125.553 25.5643L129.644 26.9584C130.023 27.0873 130.385 26.7225 130.271 26.3289L129.075 22.2232C128.96 21.8295 129.323 21.4648 129.701 21.5936L133.793 22.9877C134.171 23.1165 134.534 22.7518 134.419 22.3581L133.223 18.2525C133.109 17.8588 133.472 17.4941 133.85 17.6229L137.941 19.017C138.319 19.1458 138.682 18.7811 138.568 18.3874L137.372 14.2817C137.257 13.8881 137.62 13.5234 137.998 13.6522L142.09 15.0463C142.468 15.1751 142.831 14.8104 142.716 14.4167L141.576 10.5033C141.452 10.0769 141.883 9.70268 142.268 9.9017L145.939 11.7955C146.204 11.9319 146.525 11.7982 146.624 11.5105L147.872 7.89137C148.015 7.47814 148.563 7.43167 148.767 7.81553L150.714 11.4763C150.867 11.7657 151.244 11.8281 151.479 11.6031L154.267 8.93504C154.535 8.67813 154.971 8.80176 155.073 9.16381L156.663 14.7925C156.738 15.0567 157.003 15.2109 157.261 15.14L162.471 13.7094C162.809 13.6164 163.13 13.9076 163.084 14.2659L162.485 18.9117C162.454 19.1512 162.591 19.3796 162.812 19.4579L167.484 21.1113C167.726 21.1969 167.863 21.4592 167.801 21.7152L166.914 25.3338C166.846 25.6101 167.012 25.8893 167.281 25.9524L172.148 27.0946C172.588 27.1978 172.671 27.8074 172.275 28.0337L169.558 29.5896C169.235 29.7749 169.217 30.2481 169.525 30.4578L174.515 33.8515C174.914 34.1233 174.739 34.765 174.26 34.7833L168.813 34.9916C168.491 35.0039 168.266 35.3267 168.358 35.645L169.743 40.4469C169.858 40.8457 169.485 41.2111 169.105 41.0712L164.819 39.4918C164.432 39.3495 164.056 39.7293 164.185 40.1311L165.554 44.3893C165.683 44.791 165.307 45.1708 164.92 45.0286L160.67 43.4625C160.284 43.3202 159.907 43.7 160.037 44.1018L161.405 48.36C161.534 48.7617 161.158 49.1416 160.772 48.9993L156.522 47.4332C156.135 47.2909 155.759 47.6707 155.888 48.0725L157.257 52.3307C157.386 52.7324 157.01 53.1123 156.623 52.97L152.373 51.4039C151.987 51.2616 151.611 51.6415 151.74 52.0432L153.108 56.3014C153.238 56.7031 152.861 57.083 152.475 56.9407L148.225 55.3746C147.839 55.2323 147.462 55.6122 147.591 56.0139L148.96 60.2721C149.089 60.6738 148.713 61.0537 148.327 60.9114L144.076 59.3453C143.69 59.203 143.314 59.5829 143.443 59.9846L144.812 64.2428C144.941 64.6446 144.564 65.0244 144.178 64.8821L139.928 63.316C139.542 63.1737 139.165 63.5536 139.294 63.9553L140.663 68.2135C140.792 68.6153 140.416 68.9951 140.03 68.8528L135.779 67.2868C135.393 67.1445 135.017 67.5243 135.146 67.926L136.515 72.1843C136.644 72.586 136.267 72.9658 135.881 72.8235L131.631 71.2575C131.245 71.1152 130.868 71.495 130.997 71.8967L132.366 76.155C132.495 76.5567 132.119 76.9365 131.733 76.7942L127.482 75.2282C127.096 75.0859 126.72 75.4657 126.849 75.8674L128.218 80.1257C128.347 80.5274 127.97 80.9072 127.584 80.7649L123.334 79.1989C122.948 79.0566 122.571 79.4364 122.701 79.8381L124.069 84.0964C124.198 84.4981 123.822 84.8779 123.436 84.7356L119.186 83.1696C118.799 83.0273 118.423 83.4071 118.552 83.8088L119.921 88.0671C120.05 88.4688 119.674 88.8486 119.287 88.7064L115.037 87.1403C114.651 86.998 114.275 87.3778 114.404 87.7796L115.772 92.0378C115.902 92.4395 115.525 92.8194 115.139 92.6771L110.889 91.111C110.502 90.9687 110.126 91.3485 110.255 91.7503L111.624 96.0085C111.753 96.4102 111.377 96.7901 110.99 96.6478L106.841 95.1189C106.438 94.9704 106.055 95.3875 106.221 95.7946L107.293 98.4329C107.503 98.9487 106.868 99.3856 106.488 98.9864L98.2572 90.3301C98.0633 90.1261 98.0712 89.7968 98.2747 89.602L159.924 30.5943C160.051 30.472 160.107 30.2894 160.071 30.114L158.593 23.0525C158.554 22.8655 158.417 22.7173 158.237 22.6692L151.849 20.9571C151.686 20.9135 151.513 20.9586 151.39 21.0766L89.7224 80.102C89.5229 80.293 89.2116 80.2812 89.0271 80.0758L80.3205 70.3826Z" fill="#9B5D4E"/>
<path d="M56.5892 150.451L41.9369 165.573C34.2166 173.541 21.6994 173.541 13.979 165.573V165.573C6.25863 157.605 6.25862 144.686 13.979 136.718L28.6312 121.596" stroke="#9B5D4E" stroke-width="12"/>
</svg>
