<svg width="180" height="180" viewBox="0 0 180 180" fill="none" xmlns="http://www.w3.org/2000/svg">
<path fill-rule="evenodd" clip-rule="evenodd" d="M137.72 83.965C161.071 83.965 180 65.1688 180 41.9825C180 18.7962 161.071 0 137.72 0C114.37 0 95.4404 18.7962 95.4404 41.9825C95.4404 65.1688 114.37 83.965 137.72 83.965ZM150.933 41.9822C158.23 41.9822 164.145 36.1084 164.145 28.8626C164.145 21.6169 158.23 15.7431 150.933 15.7431C143.636 15.7431 137.72 21.6169 137.72 28.8626C137.72 36.1084 143.636 41.9822 150.933 41.9822Z" fill="#9B5D4E"/>
<path d="M95.6684 55.3181L96.2486 56.8162C97.1052 59.0277 98.1866 61.1468 99.4759 63.1406L100.725 65.0727L26.1593 141.408L108.342 74.735L109.896 75.8131C114.698 79.1439 119.74 82.1195 124.982 84.7155L125.565 85.0042L119.585 90.9415L111.364 87.9729L106.132 93.1679L107.627 102.816L96.7895 102.445L92.305 106.898L95.6684 114.69L85.952 113.206L80.3465 118.772L83.7098 126.565L79.5991 130.647L73.9935 125.08L68.0142 131.018L71.7513 138.439L59.419 139.552L52.3186 146.603L53.8134 156.251L47.0868 151.798L48.9553 161.075L41.8549 156.993V168.125L33.2597 165.528L35.8756 174.063L26.9067 171.836L29.8963 180L14.9481 165.157L14.1919 164.406C6.35391 156.623 6.35391 144.004 14.1919 136.222L95.6684 55.3181Z" fill="#9B5D4E"/>
</svg>
