<svg width="170" height="181" viewBox="0 0 170 181" fill="none" xmlns="http://www.w3.org/2000/svg">
<path fill-rule="evenodd" clip-rule="evenodd" d="M130.069 84.4315C152.122 84.4315 170 65.5309 170 42.2157C170 18.9006 152.122 0 130.069 0C108.016 0 90.1382 18.9006 90.1382 42.2157C90.1382 65.5309 108.016 84.4315 130.069 84.4315ZM142.548 42.2155C149.439 42.2155 155.026 36.309 155.026 29.0231C155.026 21.7371 149.439 15.8306 142.548 15.8306C135.656 15.8306 130.069 21.7371 130.069 29.0231C130.069 36.309 135.656 42.2155 142.548 42.2155Z" fill="#F4EDAF"/>
<path d="M90.3534 55.6257L90.8706 57.0473C91.7001 59.3275 92.7473 61.5124 93.9959 63.5682L95.1294 65.4345L24.706 142.194L102.323 75.1505L103.618 76.107C108.268 79.5413 113.151 82.6092 118.227 85.2859L118.589 85.4768L112.942 91.447L105.177 88.4619L100.236 93.6858L101.648 103.387L91.4123 103.014L87.1769 107.492L90.3534 115.328L81.1769 113.835L75.8828 119.432L79.0592 127.268L75.1769 131.373L69.8827 125.776L64.2356 131.746L67.7651 139.209L56.1179 140.328L49.412 147.418L50.8238 157.119L44.4708 152.642L46.2355 161.97L39.5296 157.866V169.06L31.4119 166.448L33.8825 175.03L25.4119 172.791L28.2354 181L14.1177 166.075L13.7434 165.679C6.1531 157.654 6.1531 144.644 13.7434 136.619L90.3534 55.6257Z" fill="#F4EDAF"/>
</svg>
