<svg width="180" height="179" viewBox="0 0 180 179" fill="none" xmlns="http://www.w3.org/2000/svg">
<path d="M84.5064 2.61183C87.8407 0.419623 92.1593 0.41962 95.4936 2.61183L170.987 52.2458C176.613 55.9443 180 62.225 180 68.9574V159C180 170.046 171.046 179 160 179H132.5C121.454 179 112.5 170.046 112.5 159V128.337C112.5 122.814 108.023 118.337 102.5 118.337H90H77.2353C71.7125 118.337 67.2353 122.814 67.2353 128.337V159C67.2353 170.046 58.281 179 47.2353 179H21C9.40201 179 0 169.598 0 158V68.9574C0 62.225 3.38723 55.9443 9.01276 52.2458L84.5064 2.61183Z" fill="#F4EDAF"/>
</svg>
