<svg width="180" height="180" viewBox="0 0 180 180" fill="none" xmlns="http://www.w3.org/2000/svg">
<rect x="2.5" y="2.5" width="175" height="175" rx="14.5" stroke="#9B5D4E" stroke-width="5"/>
<line y1="38" x2="180" y2="38" stroke="#9B5D4E" stroke-width="5"/>
<line x1="118.5" y1="7.28522e-08" x2="118.5" y2="37.5" stroke="#9B5D4E" stroke-width="3"/>
<line x1="136.5" y1="7.28522e-08" x2="136.5" y2="37.5" stroke="#9B5D4E" stroke-width="3"/>
<line x1="153.6" y1="3" x2="153.6" y2="40.5" stroke="#9B5D4E" stroke-width="3"/>
<rect x="34.9001" y="65.5" width="13" height="70" stroke="#9B5D4E" stroke-width="5"/>
<line x1="41.5999" y1="138" x2="41.5999" y2="157.5" stroke="#9B5D4E" stroke-width="4"/>
<line x1="41.2" y1="63" x2="41.2" y2="52.5" stroke="#9B5D4E" stroke-width="4"/>
<rect x="2.5" y="-2.5" width="13" height="70" transform="matrix(1 0 0 -1 64.8 148)" stroke="#9B5D4E" stroke-width="5"/>
<line y1="-2" x2="19.5" y2="-2" transform="matrix(-3.22791e-08 -1 -1 8.9664e-08 72 78)" stroke="#9B5D4E" stroke-width="4"/>
<line y1="-2" x2="10.5" y2="-2" transform="matrix(0 1 1 0 75.5999 153)" stroke="#9B5D4E" stroke-width="4"/>
<rect x="2.5" y="-2.5" width="13" height="70" transform="matrix(1 0 0 -1 97.2 133)" stroke="#9B5D4E" stroke-width="5"/>
<line y1="-2" x2="19.5" y2="-2" transform="matrix(-3.22791e-08 -1 -1 8.9664e-08 104.4 63)" stroke="#9B5D4E" stroke-width="4"/>
<line y1="-2" x2="10.5" y2="-2" transform="matrix(0 1 1 0 108 138)" stroke="#9B5D4E" stroke-width="4"/>
<rect x="132.1" y="76" width="13" height="70" stroke="#9B5D4E" stroke-width="5"/>
<line x1="138.8" y1="148.5" x2="138.8" y2="168" stroke="#9B5D4E" stroke-width="4"/>
<line x1="138.4" y1="73.5" x2="138.4" y2="63" stroke="#9B5D4E" stroke-width="4"/>
</svg>
